<svg width="152" height="141" viewBox="0 0 152 141" fill="none" xmlns="http://www.w3.org/2000/svg">
<rect width="152" height="141" rx="25" fill="#1D232A"/>
<path d="M56.9432 55.2614C56.6705 52.5114 55.5 50.375 53.4318 48.8523C51.3636 47.3295 48.5568 46.5682 45.0114 46.5682C42.6023 46.5682 40.5682 46.9091 38.9091 47.5909C37.25 48.25 35.9773 49.1705 35.0909 50.3523C34.2273 51.5341 33.7955 52.875 33.7955 54.375C33.75 55.625 34.0114 56.7159 34.5795 57.6477C35.1705 58.5795 35.9773 59.3864 37 60.0682C38.0227 60.7273 39.2045 61.3068 40.5455 61.8068C41.8864 62.2841 43.3182 62.6932 44.8409 63.0341L51.1136 64.5341C54.1591 65.2159 56.9545 66.125 59.5 67.2614C62.0455 68.3977 64.25 69.7955 66.1136 71.4545C67.9773 73.1136 69.4205 75.0682 70.4432 77.3182C71.4886 79.5682 72.0227 82.1477 72.0455 85.0568C72.0227 89.3295 70.9318 93.0341 68.7727 96.1705C66.6364 99.2841 63.5455 101.705 59.5 103.432C55.4773 105.136 50.625 105.989 44.9432 105.989C39.3068 105.989 34.3977 105.125 30.2159 103.398C26.0568 101.67 22.8068 99.1136 20.4659 95.7273C18.1477 92.3182 16.9318 88.1023 16.8182 83.0795H31.1023C31.2614 85.4205 31.9318 87.375 33.1136 88.9432C34.3182 90.4886 35.9205 91.6591 37.9205 92.4545C39.9432 93.2273 42.2273 93.6136 44.7727 93.6136C47.2727 93.6136 49.4432 93.25 51.2841 92.5227C53.1477 91.7955 54.5909 90.7841 55.6136 89.4886C56.6364 88.1932 57.1477 86.7045 57.1477 85.0227C57.1477 83.4545 56.6818 82.1364 55.75 81.0682C54.8409 80 53.5 79.0909 51.7273 78.3409C49.9773 77.5909 47.8295 76.9091 45.2841 76.2955L37.6818 74.3864C31.7955 72.9545 27.1477 70.7159 23.7386 67.6705C20.3295 64.625 18.6364 60.5227 18.6591 55.3636C18.6364 51.1364 19.7614 47.4432 22.0341 44.2841C24.3295 41.125 27.4773 38.6591 31.4773 36.8864C35.4773 35.1136 40.0227 34.2273 45.1136 34.2273C50.2955 34.2273 54.8182 35.1136 58.6818 36.8864C62.5682 38.6591 65.5909 41.125 67.75 44.2841C69.9091 47.4432 71.0227 51.1023 71.0909 55.2614H56.9432ZM81.9744 105V35.1818H109.929C115.065 35.1818 119.349 35.9432 122.781 37.4659C126.213 38.9886 128.793 41.1023 130.52 43.8068C132.247 46.4886 133.111 49.5795 133.111 53.0795C133.111 55.8068 132.565 58.2045 131.474 60.2727C130.384 62.3182 128.884 64 126.974 65.3182C125.088 66.6136 122.929 67.5341 120.497 68.0795V68.7614C123.156 68.875 125.645 69.625 127.963 71.0114C130.304 72.3977 132.202 74.3409 133.656 76.8409C135.111 79.3182 135.838 82.2727 135.838 85.7045C135.838 89.4091 134.918 92.7159 133.077 95.625C131.259 98.5114 128.565 100.795 124.997 102.477C121.429 104.159 117.031 105 111.804 105H81.9744ZM96.7358 92.9318H108.77C112.884 92.9318 115.884 92.1477 117.77 90.5795C119.656 88.9886 120.599 86.875 120.599 84.2386C120.599 82.3068 120.134 80.6023 119.202 79.125C118.27 77.6477 116.94 76.4886 115.213 75.6477C113.509 74.8068 111.474 74.3864 109.111 74.3864H96.7358V92.9318ZM96.7358 64.3977H107.679C109.702 64.3977 111.497 64.0455 113.065 63.3409C114.656 62.6136 115.906 61.5909 116.815 60.2727C117.747 58.9545 118.213 57.375 118.213 55.5341C118.213 53.0114 117.315 50.9773 115.52 49.4318C113.747 47.8864 111.224 47.1136 107.952 47.1136H96.7358V64.3977Z" fill="#00D3BB"/>
</svg>
