<svg width="361" height="125" viewBox="0 0 361 125" fill="none" xmlns="http://www.w3.org/2000/svg">
<path d="M236 12C236 5.37259 241.373 0 248 0H349C355.627 0 361 5.37258 361 12V113C361 119.627 355.627 125 349 125H248C241.373 125 236 119.627 236 113V12Z" fill="#D9D9D9"/>
<path d="M307.27 95.9974C307.402 96.3249 307.63 96.6043 307.925 96.7982C308.22 96.992 308.567 97.0911 308.919 97.0821C309.272 97.0731 309.614 96.9563 309.898 96.7476C310.182 96.5389 310.396 96.2482 310.511 95.9144L332.99 30.2061C333.101 29.8996 333.122 29.568 333.051 29.25C332.98 28.932 332.82 28.6408 332.59 28.4104C332.359 28.18 332.068 28.02 331.75 27.9491C331.432 27.8782 331.1 27.8994 330.794 28.01L265.086 50.4892C264.752 50.6037 264.461 50.8175 264.252 51.1019C264.044 51.3864 263.927 51.7279 263.918 52.0806C263.909 52.4333 264.008 52.7803 264.202 53.0751C264.396 53.3699 264.675 53.5983 265.003 53.7297L292.427 64.7272C293.294 65.0743 294.082 65.5933 294.743 66.2531C295.404 66.9128 295.924 67.6996 296.273 68.5659L307.27 95.9974Z" stroke="#004F3B" stroke-width="6.91667" stroke-linecap="round" stroke-linejoin="round"/>
<path d="M332.578 28.425L294.744 66.2558" stroke="#004F3B" stroke-width="6.91667" stroke-linecap="round" stroke-linejoin="round"/>
<path d="M160.27 95.9974C160.402 96.3249 160.63 96.6043 160.925 96.7982C161.22 96.992 161.567 97.0911 161.919 97.0821C162.272 97.0731 162.614 96.9563 162.898 96.7476C163.182 96.5389 163.396 96.2482 163.511 95.9144L185.99 30.2061C186.101 29.8996 186.122 29.568 186.051 29.25C185.98 28.932 185.82 28.6408 185.59 28.4104C185.359 28.18 185.068 28.02 184.75 27.9491C184.432 27.8782 184.1 27.8994 183.794 28.01L118.086 50.4892C117.752 50.6037 117.461 50.8175 117.252 51.1019C117.044 51.3864 116.927 51.7279 116.918 52.0806C116.909 52.4333 117.008 52.7803 117.202 53.0751C117.396 53.3699 117.675 53.5983 118.003 53.7297L145.427 64.7272C146.294 65.0743 147.082 65.5933 147.743 66.2531C148.404 66.9128 148.924 67.6996 149.273 68.5659L160.27 95.9974Z" stroke="#004F3B" stroke-width="6.91667" stroke-linecap="round" stroke-linejoin="round"/>
<path d="M185.578 28.425L147.744 66.2558" stroke="#004F3B" stroke-width="6.91667" stroke-linecap="round" stroke-linejoin="round"/>
<path d="M50.2703 95.9974C50.4017 96.3249 50.6301 96.6043 50.9249 96.7982C51.2196 96.992 51.5667 97.0911 51.9194 97.0821C52.2721 97.0731 52.6136 96.9563 52.898 96.7476C53.1825 96.5389 53.3963 96.2482 53.5108 95.9144L75.9899 30.2061C76.1006 29.8996 76.1217 29.568 76.0508 29.25C75.9799 28.932 75.8199 28.6408 75.5895 28.4104C75.3591 28.18 75.0679 28.02 74.7499 27.9491C74.4319 27.8782 74.1003 27.8994 73.7939 28.01L8.08554 50.4892C7.7518 50.6037 7.46105 50.8175 7.25233 51.1019C7.04361 51.3864 6.9269 51.7279 6.91786 52.0806C6.90883 52.4333 7.00791 52.7803 7.20179 53.0751C7.39568 53.3699 7.6751 53.5983 8.00254 53.7297L35.4271 64.7272C36.2941 65.0743 37.0818 65.5933 37.7427 66.2531C38.4036 66.9128 38.9241 67.6996 39.2728 68.5659L50.2703 95.9974Z" stroke="black" stroke-width="4.41667" stroke-linecap="round" stroke-linejoin="round"/>
<path d="M75.5784 28.425L37.7443 66.2558" stroke="black" stroke-width="4.41667" stroke-linecap="round" stroke-linejoin="round"/>
</svg>
